<?xml version="1.0" standalone="no"?>
<!DOCTYPE svg PUBLIC "-//W3C//DTD SVG 20010904//EN"
 "http://www.w3.org/TR/2001/REC-SVG-20010904/DTD/svg10.dtd">
<svg version="1.0" xmlns="http://www.w3.org/2000/svg"
 width="700.000000pt" height="700.000000pt" viewBox="0 0 700.000000 700.000000"
 preserveAspectRatio="xMidYMid meet">
<metadata>
Created by potrace 1.11, written by Peter Selinger 2001-2013
</metadata>
<g transform="translate(0.000000,700.000000) scale(0.100000,-0.100000)"
fill="#000000" stroke="none">
<path d="M4522 6687 c-12 -7 -30 -24 -40 -37 -16 -23 -17 -88 -20 -927 -1
-497 -4 -903 -6 -903 -1 0 -29 9 -62 20 -270 94 -660 148 -989 137 -306 -10
-621 -63 -847 -143 l-38 -13 0 850 c0 918 2 886 -52 923 -48 34 -88 22 -220
-65 -922 -609 -1479 -1365 -1693 -2298 -66 -290 -89 -510 -89 -861 -1 -305 9
-410 59 -655 118 -573 413 -1115 832 -1532 465 -462 1046 -755 1693 -854 191
-29 554 -37 746 -15 367 41 672 127 994 282 860 415 1475 1205 1664 2139 43
208 58 379 58 635 -3 1378 -583 2443 -1763 3235 -147 99 -176 110 -227 82z
m303 -400 c600 -447 1021 -991 1254 -1624 201 -548 270 -1256 176 -1805 -46
-273 -117 -492 -244 -753 -159 -327 -359 -598 -626 -845 -665 -616 -1588 -871
-2477 -684 -819 172 -1537 725 -1919 1476 -147 290 -233 561 -286 898 -22 142
-25 641 -5 815 45 393 139 735 289 1060 245 528 658 1008 1208 1404 l100 71 5
-832 c5 -775 6 -835 23 -859 19 -28 56 -49 87 -49 10 0 92 24 182 54 296 99
503 135 815 143 237 6 395 -5 598 -42 137 -26 356 -87 464 -129 69 -28 136
-33 161 -13 9 7 24 23 33 37 16 23 17 92 17 903 l0 878 33 -22 c17 -13 68 -50
112 -82z"/>
<path d="M2320 3699 c-245 -27 -445 -214 -481 -451 -13 -82 -5 -120 31 -153
23 -21 78 -29 112 -16 35 13 68 66 68 107 0 184 210 334 411 295 159 -32 257
-133 279 -288 7 -57 14 -73 40 -95 55 -50 146 -26 169 45 14 41 1 141 -28 216
-87 229 -335 369 -601 340z"/>
<path d="M4515 3700 c-192 -21 -357 -135 -440 -304 -82 -166 -68 -303 33 -322
71 -13 132 44 132 124 0 94 86 209 192 257 53 24 76 29 148 29 193 0 324 -111
348 -293 8 -54 14 -69 41 -93 34 -30 73 -36 115 -16 42 19 60 56 58 121 -2 78
-16 128 -60 212 -102 195 -332 311 -567 285z"/>
<path d="M2994 2646 c-41 -18 -64 -52 -64 -96 0 -28 35 -87 199 -335 l200
-300 -10 -55 c-44 -233 -282 -402 -509 -362 -213 38 -380 225 -380 427 0 107
-107 163 -182 96 -32 -29 -33 -31 -32 -113 3 -281 221 -546 505 -613 82 -19
238 -19 314 0 147 37 290 134 381 257 l41 57 38 -55 c82 -119 233 -222 380
-259 77 -20 240 -19 319 1 278 70 484 314 503 596 l6 87 -36 36 c-39 39 -78
45 -127 20 -40 -21 -49 -42 -60 -138 -23 -204 -174 -362 -380 -399 -181 -31
-380 73 -465 246 -20 39 -38 95 -42 124 l-6 52 197 296 c167 251 196 300 196
332 0 44 -20 76 -60 97 -41 21 -878 22 -926 1z m670 -218 c-55 -92 -208 -308
-214 -302 -4 5 -53 78 -109 162 l-101 152 215 0 c170 0 215 -3 209 -12z"/>
</g>
</svg>
